<svg xmlns="http://www.w3.org/2000/svg" width="155.688" height="27.719" viewBox="0 0 155.688 27.719">
  <defs>
    <style>
      .cls-1 {
        fill: #024336;
      }

      .cls-1, .cls-2 {
        fill-rule: evenodd;
      }

      .cls-2 {
        fill: #f2b43b;
      }
    </style>
  </defs>
  <path id="Aqu_pure" data-name="Aqu   pure" class="cls-1" d="M3.1,20.581a1.08,1.08,0,0,1-.861.354H0.917V22.35H7.931V20.935h-1.6a0.9,0.9,0,0,1-.769-0.292,1.416,1.416,0,0,1,.062-1.154L7.07,15.4h8.09V15.305l1.446,4.122a1.454,1.454,0,0,1,.031,1.138,0.913,0.913,0,0,1-.861.369h-1.6V22.35h9.69V20.935H22.574a1.067,1.067,0,0,1-.938-0.415,5.413,5.413,0,0,1-.6-1.338L14.422,0.816H10.361L3.717,19.335A3.962,3.962,0,0,1,3.1,20.581ZM11.13,3.493l3.63,10.49H7.5ZM41.954,27.18a0.749,0.749,0,0,1-.569-0.246,1.045,1.045,0,0,1-.231-0.738V9.153a1.045,1.045,0,0,1,.231-0.738,0.749,0.749,0,0,1,.569-0.246h1.507V6.815H37.524v2.8H37.463a5.2,5.2,0,0,0-1.907-2.23,5.654,5.654,0,0,0-2.707-.846,7.512,7.512,0,0,0-.954,0A6.848,6.848,0,0,0,28.48,7.615a6.715,6.715,0,0,0-2.415,2.769,9.765,9.765,0,0,0-.877,4.338,9.088,9.088,0,0,0,.877,4.137,6.745,6.745,0,0,0,2.384,2.707,6.663,6.663,0,0,0,3.322,1.061,6.93,6.93,0,0,0,1.323-.061,5.431,5.431,0,0,0,2.307-.754,5,5,0,0,0,1.723-1.769v6.122a1.051,1.051,0,0,1-.246.769,0.8,0.8,0,0,1-.585.246h-2.03v1.354h9.2V27.18H41.954Zm-5.706-7.737a3.5,3.5,0,0,1-5.83-.015,9.063,9.063,0,0,1-.984-4.737,9.3,9.3,0,0,1,.984-4.814,3.222,3.222,0,0,1,2.922-1.584,3.18,3.18,0,0,1,2.907,1.6,9.6,9.6,0,0,1,.969,4.86A9.021,9.021,0,0,1,36.248,19.443ZM55.182,6.815V8.169H56.9a0.766,0.766,0,0,1,.631.246,1.213,1.213,0,0,1,.2.769V17.8a7.019,7.019,0,0,1-1.677,1.938,3.564,3.564,0,0,1-2.292.831A2.166,2.166,0,0,1,52,19.843a3.506,3.506,0,0,1-.6-2.261V6.815H45V8.169h1.538a0.792,0.792,0,0,1,.631.231,1.145,1.145,0,0,1,.2.754V17.7a5.089,5.089,0,0,0,1.215,3.738,4.509,4.509,0,0,0,3.338,1.215,6.063,6.063,0,0,0,3.276-.892A10.116,10.116,0,0,0,57.7,19.551h0.154v2.8h6.306V21H62.6a0.772,0.772,0,0,1-.615-0.246,1.093,1.093,0,0,1-.215-0.738V6.815H55.182ZM91.543,27.149a0.774,0.774,0,0,1-.615-0.246,1.1,1.1,0,0,1-.215-0.738V20.012a5.48,5.48,0,0,0,2.03,1.969,5.65,5.65,0,0,0,2.769.677,6.951,6.951,0,0,0,3.63-.954,6.806,6.806,0,0,0,2.553-2.784,9.518,9.518,0,0,0,.954-4.445,8.934,8.934,0,0,0-.954-4.291,6.941,6.941,0,0,0-2.538-2.722A6.76,6.76,0,0,0,95.6,6.507a5.873,5.873,0,0,0-3.045.8A5.766,5.766,0,0,0,90.4,9.584H90.251V6.815H84.375V8.169h1.477a0.775,0.775,0,0,1,.615.246,1.1,1.1,0,0,1,.215.738V26.165a1.1,1.1,0,0,1-.215.738,0.775,0.775,0,0,1-.615.246H84.375V28.5h9.167V27.149h-2ZM91.6,9.737a3.506,3.506,0,0,1,5.814.015,8.982,8.982,0,0,1,.984,4.722,9.407,9.407,0,0,1-.984,4.814,3.391,3.391,0,0,1-5.814-.062,9.612,9.612,0,0,1-.984-4.814A8.818,8.818,0,0,1,91.6,9.737ZM114.4,6.815V8.169h1.723a0.764,0.764,0,0,1,.63.246,1.208,1.208,0,0,1,.2.769V17.8a7,7,0,0,1-1.676,1.938,3.563,3.563,0,0,1-2.292.831,2.166,2.166,0,0,1-1.769-.723,3.505,3.505,0,0,1-.6-2.261V6.815h-6.4V8.169h1.538a0.794,0.794,0,0,1,.631.231,1.146,1.146,0,0,1,.2.754V17.7a5.086,5.086,0,0,0,1.215,3.738,4.508,4.508,0,0,0,3.337,1.215,6.066,6.066,0,0,0,3.277-.892,10.125,10.125,0,0,0,2.507-2.215h0.153v2.8h6.307V21h-1.569a0.771,0.771,0,0,1-.615-0.246,1.091,1.091,0,0,1-.216-0.738V6.815H114.4ZM132.549,21a0.763,0.763,0,0,1-.631-0.246,1.154,1.154,0,0,1-.2-0.738V12.506a9.484,9.484,0,0,1,1.046-1.907A5.68,5.68,0,0,1,134.1,9.23a2.565,2.565,0,0,1,1.492-.508,2.278,2.278,0,0,1,.277.015,0.314,0.314,0,0,1,.185.077,1.057,1.057,0,0,0-.4.892,1.524,1.524,0,0,0,.569,1.277,2.149,2.149,0,0,0,1.369.446,1.965,1.965,0,0,0,1.446-.584,2.206,2.206,0,0,0,.584-1.63,2.687,2.687,0,0,0-.753-1.907,2.839,2.839,0,0,0-2.169-.8,4.55,4.55,0,0,0-2.677.923,8.317,8.317,0,0,0-2.276,2.584H131.6v-3.2H125.32V8.169h1.538a0.768,0.768,0,0,1,.631.246,1.156,1.156,0,0,1,.2.738V20.012a1.155,1.155,0,0,1-.2.738,0.766,0.766,0,0,1-.631.246H125.32V22.35h9.259V21h-2.03Zm22.241-3.784a5.37,5.37,0,0,1-1.415,2.738,4.106,4.106,0,0,1-2.646,1.107,3.067,3.067,0,0,1-.307.046,3.364,3.364,0,0,1-.339.015,4,4,0,0,1-3.276-1.446A7.129,7.129,0,0,1,145.5,15.4a3.078,3.078,0,0,1-.031-0.446V14.475H156.6a9.009,9.009,0,0,0-.969-4.4,6.547,6.547,0,0,0-2.646-2.661,7.792,7.792,0,0,0-3.768-.907,8.437,8.437,0,0,0-4.014.954,7.165,7.165,0,0,0-2.861,2.753,8.486,8.486,0,0,0-1.062,4.384,8.327,8.327,0,0,0,1.077,4.353,7.22,7.22,0,0,0,2.907,2.753,8.751,8.751,0,0,0,4.107.954,7.285,7.285,0,0,0,4.753-1.446,6.574,6.574,0,0,0,2.261-4h-1.6Zm-2.876-8.044a7.3,7.3,0,0,1,.969,3.953H145.5a7.745,7.745,0,0,1,1.123-3.953A3.33,3.33,0,0,1,151.914,9.168Z" transform="translate(-0.906 -0.813)"/>
  <path class="cls-2" d="M77.319,4.168A0.768,0.768,0,0,0,76.552,3.4H71.177a0.768,0.768,0,0,0-.768.768v2.3h6.911v-2.3ZM75.4,2.249a0.384,0.384,0,0,0-.384-0.384h-2.3a0.384,0.384,0,0,0-.384.384V2.632H75.4V2.249ZM70.194,7.24a4.823,4.823,0,0,0-1.321,3.324V22.216a1.922,1.922,0,0,0,1.92,1.92h6.143a1.922,1.922,0,0,0,1.92-1.92V10.564A4.823,4.823,0,0,0,77.534,7.24h-7.34Zm9.621-3.456H78.033a1.51,1.51,0,0,1,.054.384V4.552h1.728a0.576,0.576,0,0,1,0,1.152H78.087V6.472h1.728A1.344,1.344,0,0,0,79.815,3.784Z" transform="translate(-0.906 -0.813)"/>
</svg>
